<?xml version="1.0" encoding="UTF-8"?>
<svg xmlns="http://www.w3.org/2000/svg" xmlns:xlink="http://www.w3.org/1999/xlink" width="250px" height="250px" viewBox="0 0 250 250" version="1.1">
<g id="surface1">
<path style=" stroke:none;fill-rule:nonzero;fill:rgb(0%,0%,0%);fill-opacity:1;" d="M 114.019531 0.171875 C 113.683594 0.261719 113.617188 0.601562 113.863281 0.953125 C 114.007812 1.140625 116.230469 2.414062 121.167969 5.128906 C 123.871094 6.613281 123.652344 6.65625 128.8125 3.734375 C 133.320312 1.175781 133.738281 0.910156 133.738281 0.578125 C 133.738281 0.0703125 134.101562 0.0859375 123.730469 0.0976562 C 118.441406 0.0976562 114.175781 0.128906 114.019531 0.171875 Z M 114.019531 0.171875 "/>
<path style=" stroke:none;fill-rule:nonzero;fill:rgb(0%,0%,0%);fill-opacity:1;" d="M 112.148438 1.390625 C 111.890625 1.589844 111.890625 13.707031 112.148438 13.90625 C 112.355469 14.0625 112.800781 14.078125 113.265625 13.9375 C 113.671875 13.820312 120.675781 8.691406 121.105469 8.199219 C 121.492188 7.761719 121.429688 7.179688 120.960938 6.78125 C 120.414062 6.332031 113.839844 1.632812 113.488281 1.441406 C 113.070312 1.21875 112.394531 1.191406 112.148438 1.390625 Z M 112.148438 1.390625 "/>
<path style=" stroke:none;fill-rule:nonzero;fill:rgb(0%,0%,0%);fill-opacity:1;" d="M 133.839844 1.515625 C 132.476562 2.40625 126.484375 6.78125 126.304688 7.046875 C 126.03125 7.429688 126.015625 7.726562 126.25 8.101562 C 126.496094 8.472656 133.761719 13.8125 134.191406 13.9375 C 134.375 13.996094 134.660156 14.039062 134.828125 14.039062 C 135.503906 14.039062 135.492188 14.210938 135.53125 7.734375 C 135.570312 1.050781 135.609375 1.308594 134.75 1.265625 C 134.359375 1.242188 134.203125 1.292969 133.839844 1.515625 Z M 133.839844 1.515625 "/>
<path style=" stroke:none;fill-rule:nonzero;fill:rgb(0%,0%,0%);fill-opacity:1;" d="M 122.3125 6.613281 C 121.898438 6.804688 121.648438 7.230469 121.648438 7.769531 C 121.648438 8.730469 122.171875 9.054688 123.730469 9.054688 C 125.339844 9.054688 125.667969 8.839844 125.679688 7.785156 C 125.679688 6.964844 125.589844 6.789062 125.027344 6.605469 C 124.496094 6.429688 122.714844 6.441406 122.3125 6.613281 Z M 122.3125 6.613281 "/>
<path style=" stroke:none;fill-rule:nonzero;fill:rgb(0%,0%,0%);fill-opacity:1;" d="M 122.742188 9.296875 C 122.144531 9.527344 114.203125 13.945312 113.957031 14.195312 C 113.683594 14.445312 113.644531 14.894531 113.890625 15.015625 C 113.980469 15.066406 117.515625 15.109375 123.613281 15.125 C 132.878906 15.160156 133.191406 15.148438 133.464844 15 C 133.800781 14.808594 133.816406 14.570312 133.503906 14.269531 C 133.164062 13.9375 125.160156 9.394531 124.679688 9.253906 C 124.09375 9.089844 123.222656 9.105469 122.742188 9.296875 Z M 122.742188 9.296875 "/>
<path style=" stroke:none;fill-rule:nonzero;fill:rgb(0%,0%,0%);fill-opacity:1;" d="M 119.21875 16.03125 C 119 16.113281 118.738281 16.261719 118.671875 16.355469 C 118.582031 16.453125 118.53125 17.257812 118.53125 18.496094 C 118.53125 20.664062 118.542969 20.722656 119.3125 20.972656 C 119.621094 21.070312 120.363281 21.09375 123.457031 21.09375 C 125.523438 21.09375 127.367188 21.0625 127.539062 21.019531 C 127.71875 20.972656 127.992188 20.855469 128.136719 20.753906 C 128.394531 20.574219 128.410156 20.480469 128.410156 18.480469 C 128.410156 16.480469 128.394531 16.386719 128.136719 16.203125 C 127.992188 16.105469 127.71875 15.988281 127.539062 15.9375 C 127.367188 15.898438 125.511719 15.863281 123.429688 15.863281 C 119.910156 15.863281 119.609375 15.871094 119.21875 16.03125 Z M 119.21875 16.03125 "/>
<path style=" stroke:none;fill-rule:nonzero;fill:rgb(0%,0%,0%);fill-opacity:1;" d="M 102.195312 20.097656 C 100.984375 20.257812 99.855469 20.820312 99.28125 21.5625 C 99.046875 21.867188 98.957031 22.132812 98.933594 22.691406 L 98.878906 23.402344 L 98.292969 23.503906 C 97.617188 23.601562 97.566406 23.585938 97.359375 23.15625 C 97.125 22.699219 96.148438 22.058594 95.292969 21.785156 C 94.65625 21.585938 94.394531 21.550781 93.445312 21.550781 C 92.5 21.550781 92.238281 21.585938 91.601562 21.785156 C 89.808594 22.347656 88.925781 23.5625 89.328125 24.882812 C 89.429688 25.222656 89.429688 25.230469 89.015625 25.320312 C 88.78125 25.371094 88.585938 25.40625 88.574219 25.398438 C 88.558594 25.378906 88.441406 25.238281 88.328125 25.074219 C 87.976562 24.589844 87.300781 24.144531 86.546875 23.878906 C 85.960938 23.679688 85.648438 23.628906 84.726562 23.601562 C 83.710938 23.570312 83.53125 23.585938 82.800781 23.792969 C 81.933594 24.050781 81.164062 24.523438 80.695312 25.097656 C 80.269531 25.621094 80.203125 26.632812 80.554688 27.214844 L 80.8125 27.648438 L 80.476562 27.789062 C 80.152344 27.921875 80.136719 27.921875 79.878906 27.6875 C 79.058594 26.941406 77.992188 26.566406 76.550781 26.507812 C 75.769531 26.484375 75.433594 26.507812 74.847656 26.652344 C 73.914062 26.875 73.082031 27.347656 72.585938 27.914062 C 72.222656 28.328125 72.195312 28.425781 72.195312 29.191406 C 72.195312 29.9375 72.234375 30.0625 72.546875 30.429688 L 72.910156 30.828125 L 72.613281 30.984375 C 72.457031 31.066406 72.289062 31.132812 72.234375 31.144531 C 72.171875 31.144531 71.910156 31 71.636719 30.828125 C 70.871094 30.335938 70.039062 30.113281 68.855469 30.078125 C 68.167969 30.054688 67.660156 30.089844 67.257812 30.179688 C 65.335938 30.59375 64.085938 31.921875 64.449219 33.175781 C 64.59375 33.675781 65.113281 34.363281 65.53125 34.605469 C 65.765625 34.738281 65.765625 34.746094 65.425781 34.972656 L 65.074219 35.203125 L 64.710938 35.039062 C 63.410156 34.449219 61.695312 34.339844 60.371094 34.753906 C 58.824219 35.238281 58.058594 35.984375 57.992188 37.078125 C 57.925781 37.933594 58.25 38.53125 59.082031 39.074219 L 59.65625 39.453125 L 59.382812 39.703125 C 59.238281 39.84375 59.042969 39.9375 58.953125 39.910156 C 56.589844 39.265625 54.25 39.753906 53.144531 41.125 C 52.921875 41.390625 52.832031 41.671875 52.792969 42.203125 C 52.742188 42.84375 52.765625 42.96875 53.078125 43.40625 C 53.457031 43.921875 54 44.335938 54.675781 44.601562 C 55.054688 44.753906 55.082031 44.785156 54.949219 45.007812 C 54.886719 45.152344 54.808594 45.257812 54.78125 45.257812 C 54.769531 45.257812 54.496094 45.199219 54.183594 45.125 C 53.859375 45.050781 53.207031 44.992188 52.6875 44.992188 C 51.011719 44.992188 49.53125 45.597656 48.828125 46.570312 C 48.609375 46.871094 48.542969 47.117188 48.542969 47.667969 C 48.542969 48.273438 48.59375 48.4375 48.90625 48.847656 C 49.492188 49.617188 50.988281 50.324219 52 50.324219 C 52.339844 50.324219 52.417969 50.449219 52.3125 50.820312 C 52.234375 51.097656 52.167969 51.15625 51.921875 51.15625 C 51.011719 51.15625 49.609375 51.703125 49.023438 52.292969 C 48.492188 52.847656 48.296875 53.261719 48.308594 53.910156 C 48.335938 54.914062 49.167969 55.761719 50.582031 56.21875 L 51.375 56.46875 L 67.089844 56.46875 L 78.96875 50.613281 C 89.792969 45.277344 90.875 44.761719 91.121094 44.851562 C 91.730469 45.058594 92.34375 44.894531 94.71875 43.871094 C 98.867188 42.09375 103.011719 40.964844 106.703125 40.601562 C 108.070312 40.46875 108.886719 40.117188 109.472656 39.40625 C 109.71875 39.097656 109.746094 38.929688 109.746094 37.253906 L 109.757812 35.4375 L 113.265625 33.699219 L 116.777344 31.972656 L 123.40625 31.972656 C 127.382812 31.972656 130.109375 32.007812 130.226562 32.054688 C 130.359375 32.105469 127.953125 32.140625 123.507812 32.15625 L 116.59375 32.179688 L 116.296875 32.371094 C 116.023438 32.546875 115.996094 32.644531 115.957031 33.667969 C 115.917969 34.753906 115.917969 34.773438 116.257812 35.027344 L 116.605469 35.292969 L 130.761719 35.292969 L 131.074219 35.078125 C 131.371094 34.871094 131.398438 34.796875 131.421875 33.757812 L 131.460938 32.644531 L 134.878906 34.324219 L 138.285156 36 L 138.273438 37.496094 C 138.246094 39.148438 138.3125 39.339844 139.066406 39.894531 C 139.664062 40.316406 140.234375 40.492188 141.664062 40.640625 C 145.5625 41.066406 149.867188 42.3125 154.117188 44.230469 C 154.921875 44.59375 155.664062 44.859375 155.9375 44.894531 C 156.3125 44.933594 159.105469 46.273438 168.101562 50.707031 L 179.785156 56.46875 L 195.550781 56.46875 L 196.210938 56.261719 C 197.003906 56.003906 197.863281 55.4375 198.242188 54.90625 C 198.683594 54.300781 198.644531 53.261719 198.164062 52.632812 C 197.589844 51.894531 196.40625 51.3125 195.226562 51.1875 C 194.613281 51.121094 194.628906 51.136719 194.511719 50.722656 C 194.433594 50.433594 194.445312 50.40625 194.78125 50.367188 C 197.042969 50.050781 198.355469 49.0625 198.355469 47.648438 C 198.355469 45.988281 196.058594 44.742188 193.46875 45.007812 C 193.082031 45.050781 192.625 45.125 192.46875 45.175781 C 192.171875 45.285156 192.039062 45.234375 191.910156 44.953125 C 191.832031 44.808594 191.921875 44.726562 192.390625 44.519531 C 193.546875 44.011719 194.277344 42.992188 194.121094 42.070312 C 193.835938 40.316406 191.105469 39.199219 188.519531 39.761719 L 187.738281 39.9375 L 187.519531 39.753906 C 187.207031 39.496094 187.21875 39.472656 187.816406 39.054688 C 188.648438 38.484375 188.910156 38.035156 188.910156 37.203125 C 188.910156 36.597656 188.855469 36.433594 188.542969 36.023438 C 187.425781 34.570312 184.425781 34.050781 182.371094 34.960938 C 182.070312 35.105469 181.800781 35.210938 181.785156 35.210938 C 181.761719 35.210938 181.617188 35.105469 181.460938 34.972656 L 181.1875 34.730469 L 181.566406 34.421875 C 182.203125 33.90625 182.515625 33.269531 182.449219 32.578125 C 182.34375 31.566406 181.550781 30.785156 180.109375 30.296875 C 179.628906 30.128906 179.355469 30.105469 178.25 30.105469 C 176.769531 30.105469 176.277344 30.222656 175.25 30.828125 C 174.691406 31.152344 174.675781 31.160156 174.351562 31.027344 C 174.171875 30.953125 174.027344 30.867188 174.027344 30.835938 C 174.027344 30.8125 174.183594 30.578125 174.378906 30.320312 C 174.675781 29.929688 174.742188 29.746094 174.742188 29.191406 C 174.742188 28.636719 174.675781 28.453125 174.378906 28.0625 C 173.648438 27.097656 172.429688 26.574219 170.777344 26.507812 C 169.453125 26.46875 168.53125 26.683594 167.59375 27.273438 C 167.21875 27.507812 166.890625 27.746094 166.851562 27.8125 C 166.8125 27.90625 166.75 27.914062 166.488281 27.820312 C 166.308594 27.761719 166.152344 27.707031 166.125 27.695312 C 166.097656 27.679688 166.214844 27.40625 166.371094 27.074219 C 166.722656 26.328125 166.644531 25.753906 166.085938 25.023438 C 165.398438 24.109375 164.03125 23.585938 162.355469 23.585938 C 161.863281 23.585938 161.1875 23.644531 160.847656 23.71875 C 160.082031 23.886719 158.925781 24.550781 158.5625 25.046875 C 158.339844 25.332031 158.222656 25.414062 158.054688 25.363281 C 157.9375 25.339844 157.742188 25.289062 157.625 25.273438 C 157.441406 25.238281 157.417969 25.179688 157.496094 25.007812 C 157.546875 24.890625 157.585938 24.492188 157.574219 24.125 C 157.574219 23.335938 157.25 22.824219 156.417969 22.300781 C 155.414062 21.652344 153.765625 21.371094 152.363281 21.585938 C 151.085938 21.792969 149.671875 22.632812 149.386719 23.355469 C 149.292969 23.621094 149.269531 23.621094 148.515625 23.496094 L 147.96875 23.414062 L 147.96875 22.730469 C 147.96875 22.214844 147.902344 21.960938 147.695312 21.667969 C 146.683594 20.273438 144.1875 19.675781 141.976562 20.308594 C 140.703125 20.671875 139.832031 21.429688 139.585938 22.382812 C 139.429688 23.003906 139.183594 23.230469 138.441406 23.4375 C 137.855469 23.601562 137.648438 23.613281 123.457031 23.613281 C 112.746094 23.601562 108.953125 23.578125 108.613281 23.511719 C 107.898438 23.363281 107.40625 22.949219 107.300781 22.414062 C 107.199219 21.933594 106.730469 21.253906 106.273438 20.9375 C 105.753906 20.589844 104.921875 20.265625 104.15625 20.140625 C 103.335938 20.007812 103.027344 20 102.195312 20.097656 Z M 102.195312 20.097656 "/>
<path style=" stroke:none;fill-rule:nonzero;fill:rgb(0%,0%,0%);fill-opacity:1;" d="M 116.660156 35.585938 C 116.242188 35.867188 116.191406 36.109375 116.191406 37.578125 C 116.191406 39.046875 116.242188 39.289062 116.660156 39.570312 L 116.957031 39.777344 L 123.597656 39.777344 C 128.109375 39.777344 130.332031 39.753906 130.515625 39.6875 C 131.019531 39.511719 131.136719 39.128906 131.136719 37.578125 C 131.136719 36.023438 131.019531 35.644531 130.515625 35.46875 C 130.332031 35.402344 128.109375 35.378906 123.597656 35.378906 L 116.957031 35.378906 Z M 116.660156 35.585938 "/>
<path style=" stroke:none;fill-rule:nonzero;fill:rgb(0%,0%,0%);fill-opacity:1;" d="M 117.28125 40.035156 C 117.0625 40.183594 117.035156 40.367188 116.996094 41.546875 C 116.945312 43.007812 116.984375 43.191406 117.359375 43.433594 C 117.609375 43.589844 117.816406 43.597656 123.664062 43.597656 L 129.722656 43.597656 L 130.03125 43.390625 C 130.359375 43.191406 130.359375 43.167969 130.359375 41.769531 C 130.359375 40.394531 130.28125 40.085938 129.917969 39.929688 C 129.839844 39.894531 127.019531 39.863281 123.652344 39.863281 C 117.59375 39.863281 117.53125 39.863281 117.28125 40.035156 Z M 117.28125 40.035156 "/>
<path style=" stroke:none;fill-rule:nonzero;fill:rgb(0%,0%,0%);fill-opacity:1;" d="M 121.648438 46.148438 C 119.441406 46.871094 119.195312 48.863281 121.207031 49.769531 C 121.519531 49.910156 121.78125 50.066406 121.78125 50.117188 C 121.78125 50.324219 121.246094 51.1875 120.714844 51.835938 C 117.335938 55.988281 109.628906 57.964844 102.648438 56.46875 C 102.023438 56.335938 101.207031 56.128906 100.828125 56.003906 C 98.710938 55.332031 96.34375 54.027344 95.097656 52.847656 L 94.472656 52.257812 L 94.734375 51.753906 C 95.058594 51.144531 95.070312 50.90625 94.8125 50.355469 C 94.578125 49.851562 94.007812 49.394531 93.214844 49.09375 C 92.394531 48.796875 90.953125 48.769531 90.121094 49.054688 C 88.859375 49.476562 88.3125 50.066406 88.3125 50.988281 C 88.3125 51.917969 88.886719 52.515625 90.210938 52.941406 C 90.925781 53.171875 90.976562 53.28125 90.976562 54.691406 C 90.976562 56.667969 90.105469 58.488281 88.367188 60.128906 C 87.664062 60.804688 85.960938 61.933594 84.867188 62.445312 C 79.371094 65.046875 71.753906 64.914062 66.453125 62.113281 L 65.515625 61.617188 L 65.59375 61.035156 C 65.660156 60.585938 65.621094 60.371094 65.4375 60.074219 C 64.542969 58.578125 61.65625 58.171875 59.914062 59.292969 C 58.277344 60.328125 58.695312 62.03125 60.746094 62.710938 C 61.382812 62.921875 62.605469 63.003906 63.191406 62.871094 C 63.621094 62.769531 63.621094 62.769531 64.375 63.292969 C 66.921875 65.054688 69.273438 67.585938 70.441406 69.8125 C 70.910156 70.71875 71.46875 72.171875 71.480469 72.503906 C 71.480469 72.578125 71.210938 72.710938 70.84375 72.828125 C 70.078125 73.050781 69.285156 73.558594 68.855469 74.070312 C 67.921875 75.226562 69.15625 76.722656 71.171875 76.863281 C 71.742188 76.902344 72.105469 76.835938 74.730469 76.207031 C 94.71875 71.398438 117.476562 69.695312 140.691406 71.257812 C 152.570312 72.054688 163.96875 73.804688 172.597656 76.148438 C 173.558594 76.40625 174.597656 76.644531 174.886719 76.679688 C 176.925781 76.878906 178.835938 75.933594 178.835938 74.726562 C 178.835938 74.046875 178.328125 73.597656 176.859375 72.960938 C 175.976562 72.578125 175.753906 72.445312 175.847656 72.335938 C 175.898438 72.261719 176.105469 71.839844 176.289062 71.390625 C 177.40625 68.734375 179.863281 65.894531 183.035156 63.585938 C 183.839844 63.003906 183.957031 62.945312 184.410156 62.945312 C 186.21875 62.945312 187.675781 61.992188 187.675781 60.8125 C 187.675781 59.941406 187.113281 59.316406 185.957031 58.910156 C 184.644531 58.453125 182.761719 58.644531 181.851562 59.332031 C 181.070312 59.929688 180.773438 60.902344 181.175781 61.535156 C 181.34375 61.800781 181.332031 61.816406 180.96875 62.007812 C 178.5 63.292969 174.183594 64.15625 171.039062 63.984375 C 167.007812 63.765625 163.773438 62.820312 161.109375 61.085938 C 158.351562 59.285156 156.871094 56.984375 156.871094 54.476562 C 156.871094 53.585938 156.898438 53.488281 157.117188 53.4375 C 157.507812 53.363281 158.3125 52.816406 158.574219 52.449219 C 158.871094 52.027344 158.898438 51.128906 158.625 50.714844 C 157.742188 49.367188 154.855469 48.980469 153.179688 49.976562 C 152.285156 50.515625 151.917969 51.628906 152.402344 52.398438 L 152.609375 52.730469 L 152.050781 53.214844 C 149.425781 55.4375 145.253906 56.824219 140.808594 56.941406 C 135.75 57.082031 131.125 55.679688 128.109375 53.105469 C 127.238281 52.359375 126.1875 51.0625 125.796875 50.234375 L 125.535156 49.691406 L 125.976562 49.21875 C 126.730469 48.421875 126.746094 47.675781 126.015625 46.902344 C 125.417969 46.261719 124.613281 45.972656 123.351562 45.941406 C 122.480469 45.914062 122.285156 45.941406 121.648438 46.148438 Z M 121.648438 46.148438 "/>
<path style=" stroke:none;fill-rule:nonzero;fill:rgb(0%,0%,0%);fill-opacity:1;" d="M 92.863281 77.890625 C 81.191406 78.515625 71.46875 81.378906 63.292969 86.609375 C 54.171875 92.429688 49.984375 99.605469 50.570312 108.40625 C 50.792969 111.777344 51.675781 114.84375 53.3125 117.914062 C 54.898438 120.886719 56.835938 123.363281 59.851562 126.257812 C 64.777344 130.984375 70.753906 134.546875 78.03125 137.070312 C 78.746094 137.320312 79.398438 137.550781 79.460938 137.59375 C 79.515625 137.628906 79.332031 137.875 79.058594 138.148438 C 78.773438 138.414062 78.164062 139.039062 77.695312 139.546875 C 74.511719 143 72.132812 146.59375 67.804688 154.53125 C 63.8125 161.839844 61.96875 164.753906 59.449219 167.769531 C 54.859375 173.25 50.21875 175.847656 44.96875 175.898438 C 42.953125 175.914062 41.226562 175.539062 40.054688 174.835938 C 39.070312 174.253906 38.796875 173.78125 38.820312 172.757812 C 38.847656 171.789062 39.042969 171.347656 39.785156 170.625 C 40.355469 170.0625 40.40625 169.820312 40.03125 169.605469 C 39.042969 169.03125 35.742188 169.753906 34.128906 170.890625 C 33.050781 171.65625 32.636719 172.84375 33.011719 174.0625 C 33.648438 176.164062 36.925781 177.867188 41.316406 178.398438 C 44.292969 178.753906 48.609375 178.597656 52.441406 177.980469 C 61.203125 176.578125 68.84375 172.609375 74.746094 166.390625 C 76.617188 164.429688 77.863281 162.652344 79.136719 160.203125 C 80.425781 157.703125 80.8125 156.683594 82.789062 150.414062 C 84.609375 144.660156 85.296875 142.785156 86.453125 140.515625 C 86.882812 139.667969 87 139.503906 87.183594 139.546875 C 87.882812 139.71875 91.171875 140.277344 92.601562 140.476562 C 94.175781 140.683594 94.5 140.699219 97.476562 140.699219 C 100.308594 140.707031 100.804688 140.683594 102.011719 140.515625 C 104.609375 140.152344 106.664062 139.480469 108.09375 138.523438 C 108.9375 137.96875 109.746094 136.953125 110.019531 136.140625 C 110.265625 135.394531 110.265625 134.207031 110.019531 133.535156 C 109.199219 131.332031 105.703125 129.597656 101.0625 129.082031 C 99.542969 128.917969 96.566406 128.917969 94.992188 129.089844 C 90.652344 129.5625 86.742188 131.007812 84.363281 133.035156 C 83.933594 133.390625 83.53125 133.75 83.464844 133.832031 C 83.335938 133.964844 83.308594 133.964844 82.855469 133.816406 C 80.878906 133.144531 76.550781 130.636719 74.445312 128.957031 C 70.222656 125.5625 66.828125 121.195312 65.164062 116.976562 C 64.164062 114.425781 63.761719 112.277344 63.773438 109.402344 C 63.800781 101.5 67.558594 94.929688 75.109375 89.640625 C 78.382812 87.347656 81.917969 85.648438 86.105469 84.359375 C 88.429688 83.636719 90.027344 83.273438 92.472656 82.875 C 96.332031 82.242188 97.476562 82.167969 103.519531 82.167969 C 108.785156 82.175781 111.03125 82.242188 114.332031 82.507812 C 116.867188 82.714844 116.828125 82.65625 114.929688 83.363281 C 103.765625 87.480469 97.359375 92.664062 96.113281 98.566406 C 95.890625 99.605469 95.863281 101.457031 96.058594 102.355469 C 96.578125 104.753906 98.582031 106.960938 101.050781 107.875 C 102.738281 108.507812 105.261719 108.679688 107.160156 108.308594 C 109.679688 107.800781 111.875 106.371094 112.761719 104.664062 C 113.109375 103.972656 113.136719 103.839844 113.136719 102.59375 C 113.136719 101.109375 112.957031 100.570312 112.125 99.613281 C 111.410156 98.773438 110.964844 98.773438 110.5625 99.613281 C 110.433594 99.878906 110.175781 100.417969 109.992188 100.800781 C 109.34375 102.128906 108.367188 102.710938 106.652344 102.785156 C 105.441406 102.835938 104.871094 102.710938 104.105469 102.253906 C 103.390625 101.832031 102.753906 101.015625 102.480469 100.179688 C 102.257812 99.503906 102.234375 97.820312 102.414062 96.832031 C 102.699219 95.421875 103.804688 93.785156 105.507812 92.257812 C 106.808594 91.09375 109.835938 89.132812 111.902344 88.128906 C 112.085938 88.046875 112.097656 88.0625 112.058594 88.296875 C 112.019531 88.496094 112.242188 88.902344 112.878906 89.808594 C 114.800781 92.582031 115.761719 94.339844 116.140625 95.769531 C 116.375 96.664062 116.375 96.675781 116.125 96.757812 C 115.683594 96.914062 114.773438 97.5625 114.683594 97.785156 C 114.554688 98.117188 114.800781 98.351562 115.59375 98.617188 L 116.320312 98.859375 L 116.320312 101.765625 C 116.320312 103.359375 116.113281 121.710938 115.867188 142.527344 L 115.410156 180.390625 L 115.023438 180.921875 C 114.683594 181.378906 114.28125 181.667969 112.019531 183.082031 C 110.5625 183.992188 109.316406 184.832031 109.226562 184.980469 C 108.796875 185.628906 109.109375 186.113281 110.03125 186.21875 C 111.082031 186.34375 117.050781 186.101562 119.542969 185.828125 C 121.636719 185.605469 123.636719 185.621094 125.679688 185.878906 C 127.886719 186.152344 130.617188 186.335938 133.347656 186.394531 C 135.542969 186.433594 135.632812 186.425781 135.921875 186.261719 C 136.296875 186.027344 136.308594 185.414062 135.960938 185.046875 C 135.828125 184.90625 134.632812 184.09375 133.296875 183.230469 C 131.320312 181.953125 130.800781 181.570312 130.460938 181.121094 L 130.046875 180.582031 L 130.460938 143.746094 C 130.695312 123.484375 130.917969 105.128906 130.96875 102.953125 L 131.046875 98.984375 L 131.734375 98.785156 C 133.074219 98.394531 133.113281 97.976562 131.878906 97.214844 L 131.113281 96.722656 L 131.269531 96.09375 C 131.605469 94.738281 132.8125 92.648438 134.726562 90.113281 C 135.191406 89.492188 135.621094 88.820312 135.660156 88.628906 L 135.75 88.269531 L 137.3125 89.167969 C 140.144531 90.804688 142.183594 92.449219 143.550781 94.207031 C 144.589844 95.546875 144.886719 96.226562 145.058594 97.652344 C 145.226562 98.964844 145.136719 99.902344 144.769531 100.742188 C 143.941406 102.660156 142.210938 103.449219 139.859375 103 C 138.453125 102.734375 137.664062 102.003906 137.023438 100.371094 C 136.425781 98.824219 135.882812 98.832031 134.765625 100.394531 C 133.894531 101.613281 133.789062 103.648438 134.53125 105.070312 C 135.386719 106.722656 137.6875 108.175781 140.210938 108.648438 C 142.769531 109.128906 145.578125 108.707031 147.539062 107.550781 C 148.980469 106.695312 150.320312 105.175781 150.894531 103.757812 C 151.660156 101.855469 151.582031 99.324219 150.699219 97.007812 C 149.242188 93.1875 145.070312 89.332031 139.066406 86.253906 C 137.441406 85.414062 133.90625 83.855469 132.152344 83.199219 C 131.734375 83.046875 131.449219 82.890625 131.5 82.855469 C 131.929688 82.582031 143.691406 82.34375 147.449219 82.535156 C 158.496094 83.089844 166.957031 85.972656 173.921875 91.542969 C 177.25 94.191406 180.058594 97.753906 181.511719 101.140625 C 182.304688 102.976562 182.851562 104.945312 183.113281 106.914062 C 183.320312 108.367188 183.28125 111.703125 183.058594 113.03125 C 182.214844 118.164062 179.589844 122.773438 175 127.171875 C 171.699219 130.335938 168.046875 132.660156 163.539062 134.464844 L 163.007812 134.679688 L 162.148438 133.914062 C 159.703125 131.722656 156.195312 130.277344 151.6875 129.613281 C 150.046875 129.375 146.683594 129.308594 145.042969 129.488281 C 140.390625 130.011719 137.15625 131.589844 136.246094 133.800781 C 135.972656 134.464844 135.972656 135.867188 136.257812 136.613281 C 137 138.632812 139.636719 140.144531 143.511719 140.789062 C 145.460938 141.113281 146.65625 141.199219 149.203125 141.199219 C 152.246094 141.199219 154.507812 140.964844 158.015625 140.316406 C 158.601562 140.210938 159.003906 140.167969 159.082031 140.21875 C 159.261719 140.335938 160.277344 142.660156 160.902344 144.359375 C 161.199219 145.183594 162.097656 148.1875 162.914062 151.046875 C 164.628906 157.058594 164.851562 157.761719 165.644531 159.574219 C 167.359375 163.542969 169.167969 166.125 172.402344 169.230469 C 176.613281 173.265625 181.539062 176.140625 187.347656 177.957031 C 191.808594 179.34375 195.589844 179.898438 200.605469 179.890625 C 203.152344 179.890625 203.425781 179.875 204.632812 179.667969 C 209.546875 178.820312 212.289062 176.871094 212.070312 174.355469 C 212.015625 173.753906 211.9375 173.53125 211.601562 173.101562 C 211.054688 172.394531 209.964844 171.746094 208.535156 171.296875 C 207.625 171.007812 207.273438 170.941406 206.46875 170.90625 C 204.738281 170.839844 204.441406 171.164062 205.335938 172.128906 C 206 172.824219 206.15625 173.242188 206.179688 174.210938 C 206.179688 174.867188 206.140625 175.066406 205.894531 175.417969 C 205.347656 176.179688 204.324219 176.6875 202.488281 177.085938 C 201.945312 177.203125 201.410156 177.242188 200.28125 177.242188 C 198.472656 177.234375 197.277344 177.042969 195.613281 176.496094 C 194.082031 175.980469 192.988281 175.441406 191.496094 174.4375 C 189.3125 172.976562 187.726562 171.429688 185.59375 168.691406 C 183.097656 165.476562 181.746094 163.242188 178.511719 156.898438 C 176.09375 152.140625 175.496094 151.019531 174.457031 149.175781 C 172.15625 145.117188 169.894531 141.921875 167.566406 139.453125 L 166.542969 138.367188 L 168.007812 137.894531 C 173.351562 136.164062 178.511719 133.617188 182.449219 130.761719 C 189.324219 125.777344 193.71875 120.246094 195.589844 114.21875 C 197.511719 108.023438 196.757812 101.691406 193.457031 96.449219 C 189.546875 90.230469 181.320312 84.609375 171.519531 81.453125 C 163.136719 78.753906 154.429688 77.875 141.339844 78.398438 C 135.386719 78.640625 130.773438 79.160156 126.082031 80.148438 C 124.289062 80.523438 124.003906 80.566406 123.597656 80.480469 C 123.351562 80.433594 122.207031 80.191406 121.066406 79.933594 C 116.398438 78.894531 111.449219 78.308594 104.558594 77.976562 C 102.0625 77.851562 94.605469 77.800781 92.863281 77.890625 Z M 125.511719 84.453125 C 128.523438 85.28125 132.074219 86.542969 134.21875 87.558594 L 135.101562 87.972656 L 134.6875 88.03125 C 134.152344 88.097656 133.800781 88.269531 131.203125 89.722656 C 127.824219 91.609375 125.105469 93.039062 124.09375 93.453125 L 123.730469 93.601562 L 122.859375 93.160156 C 121.378906 92.40625 119.351562 91.285156 116.90625 89.847656 C 114.164062 88.238281 113.527344 87.90625 113.03125 87.804688 C 112.667969 87.730469 112.707031 87.714844 114.074219 87.140625 C 115.59375 86.492188 117.894531 85.671875 119.285156 85.265625 C 120.402344 84.941406 123.769531 84.042969 123.886719 84.035156 C 123.9375 84.035156 124.664062 84.226562 125.511719 84.453125 Z M 100.128906 132.070312 C 101.90625 132.3125 103.257812 132.851562 103.949219 133.601562 C 104.261719 133.941406 104.300781 134.066406 104.300781 134.769531 C 104.300781 135.71875 104.078125 136.042969 103.066406 136.621094 C 101.921875 137.285156 100.101562 137.59375 97.398438 137.59375 C 95.667969 137.59375 94.5 137.476562 92.730469 137.121094 C 91.707031 136.914062 90.027344 136.398438 89.445312 136.117188 L 89.144531 135.964844 L 89.679688 135.285156 C 91.472656 133.003906 96.214844 131.539062 100.128906 132.070312 Z M 149.203125 132.480469 C 152.441406 132.851562 155.375 134.246094 156.636719 136 C 156.921875 136.40625 156.976562 136.554688 156.871094 136.640625 C 156.585938 136.863281 154.3125 137.503906 153.101562 137.710938 C 151.257812 138.015625 149.867188 138.125 148.371094 138.058594 C 145.773438 137.960938 144.238281 137.636719 143.09375 136.960938 C 142.144531 136.390625 141.859375 135.964844 141.859375 135.101562 C 141.875 134.570312 141.925781 134.414062 142.25 134.03125 C 142.886719 133.285156 144.226562 132.738281 145.980469 132.488281 C 147.03125 132.347656 147.996094 132.335938 149.203125 132.480469 Z M 149.203125 132.480469 "/>
<path style=" stroke:none;fill-rule:nonzero;fill:rgb(0%,0%,0%);fill-opacity:1;" d="M 50.792969 193.285156 C 50.441406 193.542969 50.296875 193.777344 45.878906 200.824219 C 43.511719 204.621094 41.394531 207.925781 41.175781 208.191406 C 40.964844 208.449219 40.652344 208.738281 40.496094 208.828125 L 40.210938 209.003906 L 39.589844 208.753906 C 38.300781 208.230469 36.964844 207.292969 33.023438 204.164062 L 30.671875 202.285156 L 32.011719 201.429688 C 34.257812 200.003906 34.894531 199.132812 34.894531 197.503906 C 34.894531 196.558594 34.871094 196.484375 34.480469 195.949219 C 33.6875 194.886719 32.386719 194.242188 30.320312 193.875 C 29.359375 193.710938 28.984375 193.699219 23.03125 193.683594 C 17.597656 193.667969 16.738281 193.683594 16.675781 193.785156 C 16.558594 193.976562 16.882812 194.058594 17.742188 194.058594 C 18.703125 194.058594 19.328125 194.25 19.691406 194.640625 C 19.9375 194.921875 19.949219 195.070312 19.988281 200.566406 C 20.042969 207.550781 19.925781 208.773438 19.195312 209.160156 C 19.078125 209.21875 18.597656 209.292969 18.117188 209.320312 C 17.558594 209.34375 17.234375 209.402344 17.195312 209.476562 C 17.15625 209.542969 17.15625 209.617188 17.207031 209.644531 C 17.3125 209.71875 27.136719 209.726562 27.320312 209.660156 C 27.398438 209.625 27.421875 209.550781 27.382812 209.484375 C 27.332031 209.394531 26.996094 209.34375 26.226562 209.3125 C 25.058594 209.253906 24.628906 209.121094 24.328125 208.730469 C 24.082031 208.40625 23.914062 206.878906 23.914062 204.867188 L 23.914062 203.109375 L 25.644531 203.109375 C 27.722656 203.109375 27.292969 202.894531 29.894531 205.226562 C 33.101562 208.105469 34.179688 208.871094 35.664062 209.335938 C 36.871094 209.710938 37.714844 209.757812 42.109375 209.734375 L 46.074219 209.710938 L 46.113281 209.519531 C 46.152344 209.34375 46.113281 209.335938 45.386719 209.335938 C 44.785156 209.335938 44.527344 209.292969 44.253906 209.152344 C 43.667969 208.863281 43.824219 208.316406 45.136719 206.097656 L 46.242188 204.230469 L 50.15625 204.203125 L 54.078125 204.1875 L 54.3125 204.535156 C 54.445312 204.734375 55.105469 205.824219 55.769531 206.953125 C 57.03125 209.121094 57.070312 209.261719 56.417969 209.320312 C 56.238281 209.335938 56.144531 209.394531 56.171875 209.484375 C 56.210938 209.609375 56.472656 209.636719 57.964844 209.675781 C 60.316406 209.75 64.191406 209.75 64.59375 209.675781 C 64.777344 209.644531 64.917969 209.570312 64.917969 209.503906 C 64.917969 209.410156 64.671875 209.359375 63.984375 209.328125 C 62.527344 209.246094 61.824219 208.921875 60.929688 207.917969 C 60.460938 207.402344 59.5 205.914062 55.574219 199.636719 C 51.84375 193.660156 51.726562 193.484375 51.414062 193.285156 C 51.128906 193.109375 51.039062 193.109375 50.792969 193.285156 Z M 27.980469 194.953125 C 30.007812 195.5625 31.050781 196.78125 31.0625 198.550781 C 31.0625 199.289062 30.738281 200.300781 30.347656 200.785156 C 30.035156 201.175781 29.253906 201.6875 28.710938 201.863281 C 28.449219 201.953125 27.863281 202.046875 27.410156 202.078125 C 26.421875 202.136719 24.628906 201.996094 24.214844 201.820312 L 23.914062 201.695312 L 23.914062 198.300781 C 23.914062 195.683594 23.953125 194.886719 24.082031 194.820312 C 24.355469 194.679688 24.734375 194.648438 25.941406 194.671875 C 26.957031 194.695312 27.265625 194.738281 27.980469 194.953125 Z M 51.910156 200.335938 C 52.742188 201.804688 53.417969 203.027344 53.417969 203.058594 C 53.417969 203.082031 51.988281 203.109375 50.234375 203.109375 C 47.644531 203.109375 47.046875 203.082031 47.046875 203 C 47.046875 202.933594 47.722656 201.730469 48.542969 200.320312 C 49.375 198.90625 50.078125 197.703125 50.117188 197.636719 C 50.15625 197.570312 50.21875 197.546875 50.285156 197.59375 C 50.351562 197.636719 51.078125 198.867188 51.910156 200.335938 Z M 51.910156 200.335938 "/>
<path style=" stroke:none;fill-rule:nonzero;fill:rgb(0%,0%,0%);fill-opacity:1;" d="M 87.898438 193.308594 C 87.753906 193.394531 85.726562 196.550781 83.375 200.300781 C 78.785156 207.640625 78.410156 208.222656 77.902344 208.648438 C 77.433594 209.039062 76.640625 209.269531 75.617188 209.320312 C 74.886719 209.351562 74.730469 209.386719 74.730469 209.503906 C 74.730469 209.585938 74.808594 209.667969 74.902344 209.683594 C 75.015625 209.710938 82.789062 209.703125 83.21875 209.675781 C 83.269531 209.667969 83.308594 209.59375 83.308594 209.503906 C 83.308594 209.351562 83.21875 209.335938 82.59375 209.335938 C 81.269531 209.335938 80.851562 209.046875 81.101562 208.304688 C 81.179688 208.074219 81.722656 207.0625 82.320312 206.054688 L 83.402344 204.230469 L 91.289062 204.230469 L 92.71875 206.628906 C 94.199219 209.136719 94.238281 209.261719 93.589844 209.320312 C 93.40625 209.335938 93.316406 209.394531 93.34375 209.484375 C 93.382812 209.609375 93.640625 209.636719 95.136719 209.675781 C 97.539062 209.75 101.128906 209.757812 101.621094 209.703125 C 101.894531 209.660156 102.023438 209.601562 102.023438 209.492188 C 102.023438 209.359375 101.921875 209.335938 101.425781 209.335938 C 99.710938 209.335938 98.789062 208.871094 97.75 207.476562 C 97.398438 207.019531 95.253906 203.679688 92.992188 200.0625 C 90.730469 196.449219 88.753906 193.410156 88.625 193.320312 C 88.3125 193.101562 88.195312 193.101562 87.898438 193.308594 Z M 89.054688 200.335938 C 89.898438 201.828125 90.585938 203.058594 90.585938 203.074219 C 90.585938 203.125 84.269531 203.109375 84.191406 203.066406 C 84.15625 203.042969 84.816406 201.839844 85.660156 200.386719 C 86.519531 198.941406 87.246094 197.703125 87.273438 197.636719 C 87.3125 197.570312 87.378906 197.546875 87.429688 197.570312 C 87.46875 197.601562 88.195312 198.847656 89.054688 200.335938 Z M 89.054688 200.335938 "/>
<path style=" stroke:none;fill-rule:nonzero;fill:rgb(0%,0%,0%);fill-opacity:1;" d="M 186.398438 193.203125 C 186.308594 193.226562 186.128906 193.386719 185.984375 193.550781 C 185.855469 193.726562 183.800781 196.957031 181.433594 200.742188 C 179.070312 204.519531 176.964844 207.824219 176.757812 208.082031 C 176.300781 208.671875 175.523438 209.128906 174.78125 209.261719 C 174.429688 209.320312 173.636719 209.34375 172.664062 209.320312 C 170.738281 209.269531 170.386719 209.179688 170.039062 208.613281 C 169.816406 208.238281 169.804688 207.824219 169.804688 201.488281 C 169.804688 196.082031 169.84375 194.722656 169.972656 194.574219 C 170.246094 194.265625 170.894531 194.058594 171.621094 194.058594 C 172.351562 194.058594 172.664062 193.964844 172.570312 193.800781 C 172.480469 193.625 162.34375 193.609375 162.238281 193.785156 C 162.121094 193.964844 162.277344 194.007812 163.382812 194.066406 C 165.449219 194.183594 165.476562 194.222656 165.554688 197.6875 L 165.617188 200.359375 L 165.304688 200.410156 C 165.136719 200.433594 162.1875 200.441406 158.757812 200.433594 L 152.515625 200.410156 L 152.492188 197.835938 C 152.453125 194.988281 152.53125 194.5625 153.117188 194.28125 C 153.308594 194.199219 153.753906 194.109375 154.089844 194.082031 C 155.144531 194.023438 155.335938 193.984375 155.285156 193.824219 C 155.246094 193.691406 154.84375 193.683594 150.140625 193.675781 C 145.851562 193.667969 145.003906 193.683594 144.953125 193.785156 C 144.835938 193.964844 144.992188 194.007812 146.097656 194.066406 C 147.292969 194.132812 147.695312 194.273438 148.007812 194.707031 C 148.203125 194.980469 148.230469 195.59375 148.265625 200.484375 C 148.320312 207.433594 148.191406 208.773438 147.476562 209.160156 C 147.359375 209.21875 146.875 209.292969 146.394531 209.320312 C 145.835938 209.34375 145.511719 209.402344 145.472656 209.476562 C 145.433594 209.542969 145.433594 209.617188 145.484375 209.644531 C 145.589844 209.71875 155.804688 209.726562 155.988281 209.660156 C 156.066406 209.625 156.089844 209.550781 156.050781 209.484375 C 156 209.394531 155.664062 209.34375 154.871094 209.3125 C 153.621094 209.253906 153.101562 209.121094 152.855469 208.789062 C 152.542969 208.355469 152.453125 207.144531 152.476562 204.355469 L 152.515625 201.574219 L 165.515625 201.574219 L 165.554688 203.691406 C 165.59375 206.046875 165.421875 208.207031 165.164062 208.714844 C 164.957031 209.121094 164.371094 209.335938 163.460938 209.335938 C 163.019531 209.335938 162.824219 209.371094 162.757812 209.46875 C 162.71875 209.542969 162.746094 209.625 162.824219 209.660156 C 162.992188 209.726562 181.527344 209.71875 181.644531 209.652344 C 181.683594 209.617188 181.695312 209.535156 181.65625 209.460938 C 181.589844 209.371094 181.394531 209.335938 180.929688 209.335938 C 179.578125 209.335938 179.199219 209.0625 179.460938 208.273438 C 179.601562 207.851562 181.382812 204.726562 181.707031 204.335938 C 181.824219 204.195312 182.085938 204.1875 185.722656 204.1875 L 189.597656 204.1875 L 190.066406 204.953125 C 191.792969 207.839844 192.457031 209.027344 192.40625 209.128906 C 192.367188 209.1875 192.15625 209.277344 191.9375 209.328125 C 191.714844 209.378906 191.574219 209.460938 191.597656 209.519531 C 191.636719 209.59375 192.210938 209.644531 193.601562 209.683594 C 195.925781 209.75 209.078125 209.71875 209.195312 209.644531 C 209.25 209.617188 209.25 209.535156 209.210938 209.460938 C 209.144531 209.378906 208.949219 209.335938 208.507812 209.335938 C 207 209.328125 206.351562 209.0625 206.039062 208.332031 C 205.84375 207.867188 205.425781 200.359375 205.503906 198.714844 L 205.542969 197.945312 L 207.363281 199.214844 C 210.015625 201.089844 223.648438 209.808594 224.105469 209.925781 C 224.714844 210.09375 224.84375 209.894531 224.84375 208.847656 C 224.859375 206 225.246094 195.136719 225.351562 194.921875 C 225.636719 194.296875 226.117188 194.058594 227.054688 194.058594 C 227.730469 194.058594 228.171875 193.925781 227.976562 193.777344 C 227.871094 193.691406 226.847656 193.667969 223.53125 193.667969 C 219.839844 193.660156 219.230469 193.675781 219.164062 193.785156 C 219.046875 193.976562 219.371094 194.058594 220.203125 194.058594 C 221.621094 194.058594 222.285156 194.414062 222.441406 195.253906 C 222.542969 195.800781 222.882812 205.542969 222.804688 205.601562 C 222.777344 205.625 221.648438 204.910156 220.320312 204.023438 C 218.984375 203.132812 216.136719 201.265625 213.992188 199.871094 C 211.847656 198.476562 208.753906 196.433594 207.117188 195.320312 C 204.035156 193.242188 203.632812 193.042969 203.464844 193.492188 C 203.425781 193.601562 203.320312 196.957031 203.21875 200.949219 C 203.023438 208.796875 203.023438 208.789062 202.320312 209.121094 C 201.984375 209.277344 201.773438 209.292969 200.242188 209.292969 C 198.863281 209.292969 198.449219 209.269531 198.125 209.152344 C 197.488281 208.929688 196.746094 208.339844 196.148438 207.558594 C 195.835938 207.167969 193.71875 203.871094 191.429688 200.226562 C 189.15625 196.582031 187.179688 193.511719 187.050781 193.402344 C 186.789062 193.175781 186.660156 193.136719 186.398438 193.203125 Z M 187.324219 200.21875 C 188.15625 201.695312 188.84375 202.949219 188.84375 203 C 188.84375 203.082031 188.128906 203.109375 185.738281 203.109375 C 184.023438 203.109375 182.59375 203.074219 182.554688 203.042969 C 182.488281 202.96875 185.605469 197.546875 185.722656 197.546875 C 185.761719 197.546875 186.476562 198.75 187.324219 200.21875 Z M 187.324219 200.21875 "/>
<path style=" stroke:none;fill-rule:nonzero;fill:rgb(0%,0%,0%);fill-opacity:1;" d="M 110.003906 193.394531 C 105.675781 193.691406 103.011719 195.59375 103.558594 197.984375 C 103.960938 199.703125 105.195312 200.773438 109.054688 202.734375 C 110.238281 203.339844 111.449219 204.015625 111.746094 204.238281 C 113.058594 205.210938 113.515625 206.398438 112.957031 207.359375 C 112.589844 207.957031 111.566406 208.589844 110.578125 208.8125 C 109.640625 209.011719 107.796875 209.011719 106.871094 208.8125 C 105.09375 208.414062 103.988281 207.433594 103.742188 206.03125 C 103.675781 205.609375 103.597656 205.46875 103.429688 205.449219 C 103.039062 205.402344 102.933594 205.734375 102.855469 207.441406 C 102.792969 208.796875 102.816406 209.152344 102.949219 209.277344 C 103.167969 209.460938 104.6875 209.800781 105.792969 209.910156 C 107.027344 210.042969 109.550781 210.015625 110.707031 209.875 C 112.242188 209.675781 113.746094 209.171875 114.761719 208.515625 C 116.179688 207.59375 116.789062 206.511719 116.671875 205.132812 C 116.492188 203.167969 115.046875 201.878906 110.601562 199.703125 C 108.835938 198.839844 107.445312 197.953125 107.09375 197.445312 C 106.730469 196.929688 106.742188 196.132812 107.144531 195.585938 C 107.742188 194.753906 108.976562 194.347656 110.863281 194.355469 C 111.785156 194.355469 112.097656 194.398438 112.761719 194.589844 C 114.074219 194.972656 114.90625 195.660156 115.214844 196.625 C 115.332031 196.996094 115.410156 197.089844 115.605469 197.089844 C 115.851562 197.089844 115.867188 196.996094 115.957031 195.46875 C 116.023438 194.589844 116.023438 193.832031 115.957031 193.800781 C 115.789062 193.699219 114.191406 193.484375 113.265625 193.433594 C 111.449219 193.335938 110.914062 193.335938 110.003906 193.394531 Z M 110.003906 193.394531 "/>
<path style=" stroke:none;fill-rule:nonzero;fill:rgb(0%,0%,0%);fill-opacity:1;" d="M 120.492188 193.460938 C 120.429688 193.535156 120.21875 194.082031 120.039062 194.664062 C 119.660156 195.867188 119.597656 196.550781 119.882812 196.550781 C 120.101562 196.550781 120.296875 196.398438 120.390625 196.125 C 120.441406 196.007812 120.648438 195.761719 120.871094 195.570312 C 121.457031 195.046875 122.078125 194.960938 125.796875 194.894531 C 127.484375 194.863281 128.902344 194.847656 128.96875 194.863281 C 129.109375 194.914062 129.070312 206.578125 128.929688 207.660156 C 128.734375 209.039062 128.511719 209.246094 127.160156 209.320312 C 126.601562 209.34375 126.277344 209.402344 126.238281 209.476562 C 126.199219 209.542969 126.199219 209.617188 126.25 209.644531 C 126.355469 209.71875 136.570312 209.726562 136.753906 209.660156 C 136.832031 209.625 136.855469 209.550781 136.816406 209.484375 C 136.765625 209.394531 136.425781 209.34375 135.609375 209.3125 C 133.777344 209.226562 133.515625 209.019531 133.335938 207.519531 C 133.269531 206.988281 133.230469 203.921875 133.242188 200.699219 L 133.28125 194.855469 L 135.558594 194.871094 C 138.128906 194.90625 139.402344 195.003906 140.195312 195.238281 C 140.9375 195.460938 141.171875 195.652344 141.339844 196.199219 C 141.457031 196.582031 141.535156 196.671875 141.742188 196.671875 C 141.976562 196.671875 141.988281 196.574219 142.082031 195.261719 C 142.132812 194.480469 142.144531 193.757812 142.105469 193.652344 C 142.054688 193.484375 141.988281 193.46875 141.625 193.519531 C 140.378906 193.683594 138.84375 193.71875 131.917969 193.71875 C 124.199219 193.71875 122.15625 193.667969 121.167969 193.441406 C 120.664062 193.328125 120.597656 193.328125 120.492188 193.460938 Z M 120.492188 193.460938 "/>
<path style=" stroke:none;fill-rule:nonzero;fill:rgb(0%,0%,0%);fill-opacity:1;" d="M 65.152344 193.785156 C 65.035156 193.964844 65.359375 194.058594 66.152344 194.058594 C 67.195312 194.058594 67.972656 194.324219 68.234375 194.761719 C 68.492188 195.230469 68.519531 208.914062 68.257812 210.226562 C 68.039062 211.304688 67.675781 212.144531 67.15625 212.78125 C 66.660156 213.371094 65.140625 214.394531 64.386719 214.632812 C 63.789062 214.832031 63.488281 215.023438 63.621094 215.148438 C 63.761719 215.289062 64.046875 215.238281 65.21875 214.867188 C 68.675781 213.746094 71.234375 211.992188 72.042969 210.167969 C 72.5625 208.996094 72.574219 208.828125 72.574219 201.820312 C 72.585938 194.230469 72.5625 194.480469 73.433594 194.207031 C 73.679688 194.125 74.148438 194.058594 74.472656 194.058594 C 75.132812 194.058594 75.445312 193.964844 75.355469 193.800781 C 75.265625 193.617188 65.257812 193.609375 65.152344 193.785156 Z M 65.152344 193.785156 "/>
<path style=" stroke:none;fill-rule:nonzero;fill:rgb(0%,0%,0%);fill-opacity:1;" d="M 159.082031 219.300781 C 158.9375 219.390625 158.664062 219.675781 158.457031 219.941406 C 158.25 220.207031 154.492188 226.085938 150.113281 233 C 145.746094 239.917969 141.898438 245.898438 141.585938 246.285156 C 140.289062 247.90625 138.703125 248.527344 135.933594 248.527344 C 135.308594 248.527344 134.996094 248.570312 134.855469 248.660156 C 134.609375 248.8125 134.609375 248.828125 134.777344 249.027344 C 134.972656 249.269531 135.621094 249.292969 139.714844 249.203125 C 142.339844 249.144531 144.550781 249.144531 146.707031 249.203125 C 150.074219 249.285156 150.503906 249.257812 150.605469 248.910156 C 150.699219 248.628906 150.28125 248.527344 149.019531 248.527344 C 146.539062 248.519531 145.941406 247.980469 146.605469 246.320312 C 146.875 245.640625 150.398438 239.660156 150.710938 239.328125 L 150.894531 239.144531 L 165.058594 239.144531 L 165.242188 239.328125 C 165.488281 239.570312 170.386719 247.789062 170.386719 247.957031 C 170.386719 248.1875 169.984375 248.4375 169.464844 248.527344 C 168.867188 248.636719 168.699219 248.8125 168.996094 249.011719 C 169.398438 249.257812 184.074219 249.367188 184.789062 249.117188 C 185.140625 249.003906 185.152344 248.726562 184.828125 248.613281 C 184.683594 248.570312 184.203125 248.527344 183.734375 248.527344 C 180.578125 248.527344 178.914062 247.671875 176.953125 245.007812 C 175.949219 243.664062 173 239.070312 165.773438 227.605469 C 162.460938 222.339844 161.304688 220.5625 160.824219 219.949219 C 160.199219 219.160156 159.625 218.953125 159.082031 219.300781 Z M 161.070312 232.089844 C 162.628906 234.792969 163.875 237.0625 163.835938 237.121094 C 163.734375 237.285156 152.21875 237.292969 152.128906 237.128906 C 152.0625 237.046875 153.089844 235.277344 157.675781 227.539062 C 157.820312 227.296875 158.003906 227.113281 158.082031 227.128906 C 158.171875 227.148438 159.507812 229.382812 161.070312 232.089844 Z M 161.070312 232.089844 "/>
<path style=" stroke:none;fill-rule:nonzero;fill:rgb(0%,0%,0%);fill-opacity:1;" d="M 67.386719 219.558594 C 55.988281 220.304688 48.207031 224.65625 45.929688 231.53125 C 45.476562 232.917969 45.359375 235.328125 45.671875 236.769531 C 46.816406 241.960938 51.441406 246.136719 58.355469 248.222656 C 61.734375 249.242188 64.761719 249.667969 69.207031 249.75 C 77.136719 249.890625 83.53125 248.394531 88.457031 245.257812 C 92.210938 242.847656 94.410156 239.960938 95.214844 236.347656 C 95.449219 235.285156 95.472656 232.867188 95.265625 231.796875 C 94.449219 227.585938 91.417969 224.316406 86.363281 222.15625 C 83.308594 220.863281 79.941406 220.082031 75.578125 219.664062 C 74.003906 219.515625 69 219.449219 67.386719 219.558594 Z M 72.042969 221.507812 C 77.34375 222.15625 81.644531 224.300781 84.21875 227.585938 C 86.261719 230.1875 87.128906 233.285156 86.820312 236.746094 C 86.570312 239.460938 85.894531 241.328125 84.503906 243.089844 C 83.6875 244.144531 83.023438 244.734375 81.828125 245.5 C 78.644531 247.523438 74.09375 248.28125 69.011719 247.617188 C 63.371094 246.882812 59.109375 244.660156 56.417969 241.054688 C 54.742188 238.804688 53.9375 236.304688 53.9375 233.316406 C 53.9375 226.816406 57.757812 222.769531 64.957031 221.617188 C 67.089844 221.285156 69.804688 221.242188 72.042969 221.507812 Z M 72.042969 221.507812 "/>
<path style=" stroke:none;fill-rule:nonzero;fill:rgb(0%,0%,0%);fill-opacity:1;" d="M 237.320312 219.515625 C 230.304688 220.089844 225.949219 222.464844 225.363281 226.035156 C 225.066406 227.929688 225.820312 229.820312 227.546875 231.507812 C 229.316406 233.226562 230.992188 234.273438 235.761719 236.636719 C 240.753906 239.113281 242.429688 240.425781 242.988281 242.277344 C 243.496094 243.996094 242.9375 245.289062 241.167969 246.417969 C 239.726562 247.339844 237.984375 247.816406 235.632812 247.914062 C 233.566406 248.003906 231.160156 247.648438 229.691406 247.042969 C 227.445312 246.097656 226.144531 244.578125 225.742188 242.46875 C 225.574219 241.554688 225.46875 241.386719 225.105469 241.386719 C 224.390625 241.386719 224.246094 242.011719 224.105469 245.679688 C 224.039062 247.492188 224.066406 248.070312 224.195312 248.269531 C 224.390625 248.578125 225.339844 248.894531 227.054688 249.226562 C 229.226562 249.640625 230.367188 249.722656 233.8125 249.734375 C 237.074219 249.734375 238.050781 249.667969 240.050781 249.300781 C 242.910156 248.777344 245.796875 247.515625 247.40625 246.078125 C 248.042969 245.515625 248.8125 244.460938 249.160156 243.710938 C 249.550781 242.832031 249.65625 240.738281 249.355469 239.695312 C 248.484375 236.753906 245.808594 234.636719 238.425781 231.058594 C 233.28125 228.566406 231.578125 227.222656 231.382812 225.488281 C 231.253906 224.332031 231.875 223.285156 233.164062 222.503906 C 234.566406 221.648438 236.257812 221.269531 238.6875 221.269531 C 241.324219 221.269531 243.015625 221.675781 244.613281 222.695312 C 246.015625 223.59375 246.925781 224.839844 246.9375 225.859375 C 246.9375 226.210938 247.132812 226.359375 247.550781 226.359375 C 248.097656 226.359375 248.160156 226.125 248.25 223.558594 C 248.304688 222.222656 248.382812 220.984375 248.433594 220.820312 C 248.484375 220.613281 248.445312 220.453125 248.34375 220.355469 C 248.136719 220.179688 246.277344 219.875 244.273438 219.675781 C 242.898438 219.542969 238.324219 219.441406 237.320312 219.515625 Z M 237.320312 219.515625 "/>
<path style=" stroke:none;fill-rule:nonzero;fill:rgb(0%,0%,0%);fill-opacity:1;" d="M 0.144531 220.15625 C -0.078125 220.296875 -0.0273438 220.53125 0.222656 220.613281 C 0.351562 220.652344 1.105469 220.710938 1.882812 220.738281 C 4.277344 220.8125 5.339844 221.144531 5.785156 221.941406 C 6.148438 222.613281 6.226562 224.597656 6.226562 233.5 C 6.238281 245.953125 6.082031 247.457031 4.820312 248.136719 C 4.367188 248.378906 3.429688 248.527344 2.339844 248.527344 C 1.402344 248.527344 0.910156 248.636719 0.910156 248.851562 C 0.910156 249.152344 1.261719 249.234375 2.585938 249.226562 C 3.898438 249.21875 15.167969 249.21875 17.882812 249.226562 C 19.535156 249.234375 19.886719 249.167969 19.886719 248.851562 C 19.886719 248.628906 19.480469 248.527344 18.625 248.527344 C 17.390625 248.527344 15.726562 248.363281 15.207031 248.195312 C 13.789062 247.730469 13.582031 246.894531 13.4375 241.039062 C 13.359375 238.140625 13.375 237.386719 13.515625 237.277344 C 13.699219 237.136719 15.039062 237.113281 18.144531 237.210938 L 19.949219 237.261719 L 20.367188 237.542969 C 20.601562 237.691406 21.925781 238.847656 23.328125 240.109375 C 28.164062 244.433594 30.0625 245.980469 31.984375 247.160156 C 33.597656 248.136719 35.078125 248.71875 36.691406 248.992188 C 37.792969 249.183594 40.914062 249.292969 44.527344 249.257812 C 48.089844 249.234375 48.347656 249.203125 48.347656 248.851562 C 48.347656 248.636719 48.023438 248.5625 46.851562 248.503906 C 43.578125 248.347656 40.980469 247.257812 36.976562 244.367188 C 34.46875 242.550781 25.863281 235.816406 25.863281 235.667969 C 25.863281 235.625 26.398438 235.300781 27.046875 234.945312 C 30.464844 233.058594 32.558594 231.140625 33.429688 229.097656 C 33.675781 228.5 33.726562 228.195312 33.726562 227.0625 C 33.726562 225.777344 33.714844 225.710938 33.296875 224.945312 C 32.558594 223.578125 31.296875 222.414062 29.839844 221.75 C 28.074219 220.945312 25.695312 220.40625 22.9375 220.179688 C 21.144531 220.03125 0.363281 220.015625 0.144531 220.15625 Z M 19.367188 222 C 19.832031 222.074219 20.703125 222.28125 21.316406 222.472656 C 22.183594 222.753906 22.652344 222.96875 23.539062 223.535156 C 24.460938 224.125 24.757812 224.375 25.253906 225.03125 C 26.332031 226.417969 26.761719 228.050781 26.511719 229.828125 C 26.242188 231.765625 25.433594 233.085938 23.886719 234.128906 C 23.238281 234.570312 22.71875 234.820312 22.109375 235.011719 L 21.25 235.285156 L 18.585938 235.285156 C 16.480469 235.285156 15.714844 235.25 14.933594 235.136719 C 13.296875 234.894531 13.453125 235.574219 13.414062 228.648438 C 13.386719 225.363281 13.414062 222.539062 13.453125 222.398438 C 13.492188 222.238281 13.648438 222.082031 13.800781 222.03125 C 14.53125 221.785156 17.78125 221.765625 19.367188 222 Z M 19.367188 222 "/>
<path style=" stroke:none;fill-rule:nonzero;fill:rgb(0%,0%,0%);fill-opacity:1;" d="M 95.996094 220.148438 C 95.488281 220.332031 95.957031 220.710938 96.683594 220.710938 C 97.96875 220.710938 99.492188 221.175781 100.816406 221.984375 C 102.621094 223.078125 103.664062 224.035156 109.003906 229.554688 C 114.242188 234.976562 114.773438 235.59375 115.371094 236.988281 C 115.582031 237.476562 115.605469 237.957031 115.605469 241.925781 C 115.605469 246.46875 115.554688 246.925781 115.0625 247.574219 C 114.761719 247.949219 114.253906 248.261719 113.773438 248.363281 C 113.554688 248.414062 112.800781 248.480469 112.097656 248.519531 C 110.734375 248.59375 110.277344 248.738281 110.550781 249.003906 C 110.796875 249.25 111.460938 249.277344 115.488281 249.191406 C 118.074219 249.144531 121.039062 249.144531 124.222656 249.203125 C 129.226562 249.285156 129.980469 249.257812 130.148438 248.96875 C 130.332031 248.679688 129.917969 248.585938 128.253906 248.519531 C 126.277344 248.4375 125.730469 248.378906 125.160156 248.195312 C 123.613281 247.691406 123.429688 246.894531 123.496094 240.890625 L 123.546875 236.945312 L 123.898438 236.214844 C 124.09375 235.816406 124.457031 235.21875 124.71875 234.886719 C 125.769531 233.550781 129.019531 230.011719 131.890625 227.0625 C 136.933594 221.90625 138.414062 220.960938 141.910156 220.710938 C 142.976562 220.636719 143.378906 220.480469 143.148438 220.230469 C 143.015625 220.097656 142.496094 220.089844 135.933594 220.089844 L 128.863281 220.089844 L 128.824219 220.304688 C 128.785156 220.53125 129.007812 220.628906 129.890625 220.753906 C 130.097656 220.777344 130.460938 220.929688 130.707031 221.085938 C 131.214844 221.410156 131.269531 221.726562 130.917969 222.605469 C 130.632812 223.335938 129.761719 224.414062 125.808594 228.890625 C 124.003906 230.941406 122.195312 233.019531 121.804688 233.492188 C 121.195312 234.222656 121.078125 234.328125 120.960938 234.195312 C 120.882812 234.105469 119.621094 232.710938 118.140625 231.089844 C 111.875 224.234375 110.1875 222.28125 110.003906 221.667969 C 109.875 221.195312 110.210938 220.910156 111.148438 220.738281 C 112.007812 220.570312 112.320312 220.386719 112.058594 220.1875 C 111.929688 220.089844 110.707031 220.074219 104.050781 220.074219 C 99.570312 220.074219 96.125 220.105469 95.996094 220.148438 Z M 95.996094 220.148438 "/>
<path style=" stroke:none;fill-rule:nonzero;fill:rgb(0%,0%,0%);fill-opacity:1;" d="M 185.894531 220.105469 C 185.632812 220.164062 185.699219 220.53125 185.972656 220.628906 C 186.113281 220.671875 186.621094 220.710938 187.113281 220.710938 C 188.246094 220.710938 189.558594 220.910156 190.167969 221.167969 C 190.804688 221.433594 191.144531 221.882812 191.339844 222.679688 C 191.558594 223.585938 191.558594 243.761719 191.339844 245.347656 C 190.976562 247.964844 190.519531 248.402344 188.039062 248.503906 C 186.621094 248.5625 186.246094 248.636719 186.246094 248.851562 C 186.246094 249.269531 186.671875 249.292969 191.417969 249.191406 C 194.757812 249.117188 196.824219 249.125 202.375 249.234375 C 206.128906 249.308594 210.625 249.359375 212.378906 249.34375 C 216.03125 249.308594 216.242188 249.277344 216.667969 248.652344 C 216.980469 248.203125 217.359375 246.792969 217.632812 245.042969 C 217.878906 243.503906 217.8125 243.214844 217.253906 243.214844 C 216.878906 243.214844 216.722656 243.363281 216.589844 243.878906 C 216.449219 244.433594 215.941406 245.242188 215.410156 245.753906 C 214.175781 246.941406 212.199219 247.265625 206.777344 247.175781 C 203.53125 247.117188 202.28125 246.992188 201.191406 246.636719 C 199.65625 246.136719 199.449219 245.613281 199.226562 241.761719 C 199.046875 238.539062 199.148438 223.359375 199.359375 222.515625 C 199.59375 221.558594 200.152344 221.0625 201.175781 220.878906 C 201.4375 220.828125 202.203125 220.769531 202.878906 220.746094 C 204.671875 220.679688 204.933594 220.644531 205.023438 220.453125 C 205.21875 220.0625 205.425781 220.074219 195.433594 220.074219 C 190.273438 220.074219 185.972656 220.089844 185.894531 220.105469 Z M 185.894531 220.105469 "/>
</g>
</svg>
